<svg xmlns="http://www.w3.org/2000/svg" width="100" height="90" viewBox="0 0 100 90">
<path d="M 16,2 L 15,3 L 9,3 L 8,4 L 5,4 L 4,5 L 2,5 L 1,6 L 0,6 L 0,87 L 84,87 L 84,85 L 83,84 L 83,74 L 82,73 L 82,68 L 81,67 L 81,63 L 80,62 L 80,60 L 79,59 L 79,56 L 78,55 L 78,53 L 77,52 L 77,50 L 76,49 L 76,48 L 75,47 L 75,45 L 74,44 L 74,43 L 73,42 L 73,41 L 72,40 L 72,39 L 71,38 L 71,37 L 69,35 L 69,34 L 67,32 L 67,31 L 65,29 L 65,28 L 61,24 L 61,23 L 53,15 L 52,15 L 49,12 L 48,12 L 47,11 L 46,11 L 44,9 L 43,9 L 42,8 L 41,8 L 40,7 L 39,7 L 38,6 L 36,6 L 35,5 L 33,5 L 32,4 L 29,4 L 28,3 L 23,3 L 22,2 Z" fill="#4393E6" />
<path d="M 53,0 L 54,0 L 57,3 L 58,3 L 61,6 L 62,6 L 71,15 L 71,16 L 76,21 L 76,22 L 78,24 L 78,25 L 80,27 L 80,28 L 82,30 L 82,31 L 83,32 L 83,33 L 84,34 L 84,35 L 85,36 L 85,37 L 86,38 L 86,39 L 87,40 L 87,42 L 88,43 L 88,0 Z" fill="#4393E6" />
</svg>
